{"title":"F 2010 720p x264 BRRip x264.Feel-Free","uid":6097223,"size":1430711104,"categoryP":"video","categoryS":"hd___movies","magnet":"?xt=urn:btih:85615b3480d772dc8aae599ebc3afa7ea2b546e7&amp;dn=F+2010+720p+x264+BRRip+x264.Feel-Free&amp;tr=udp%3A%2F%2Ftracker.openbittorrent.com%3A80&amp;tr=udp%3A%2F%2Fopen.demonii.com%3A1337&amp;tr=udp%3A%2F%2Ftracker.coppersurfer.tk%3A6969&amp;tr=udp%3A%2F%2Fexodus.desync.com%3A6969","seeders":0,"leechers":1,"uploader":"neon","files":-1,"time":1294823647,"description":"Genre: Horror | Thriller \nLanguage:English\n &lt;a href=&quot; http://www.imdb.com/title/tt1486670/&quot; rel=&quot;nofollow&quot; target=&quot;_NEW&quot;&gt; http://www.imdb.com/title/tt1486670/&lt;/a&gt;\nSource:BluRay.x264-AVCHD\nSubtitles:Romana\n\n\nFormat                           : Matroska\nFile size                        : 1.33 GiB\nDuration                         : 1h 15mn\nOverall bit rate                 : 2 525 Kbps\n\n\nVideo\nFormat settings, CABAC           : Yes\nFormat settings, ReFrames        : 4 frames\nCodec ID                         : V_MPEG4/ISO/AVC\nDuration                         : 1h 15mn\nBit rate                         : 2 091 Kbps\nNominal bit rate                 : 2 200 Kbps\nWidth                            : 1 280 pixels\nHeight                           : 720 pixels\nDisplay aspect ratio             : 16:9\nFrame rate mode                  : Variable\nFrame rate                       : 25.000 fps\nColor space                      : YUV\nChroma subsampling               : 4:2:0\nBit depth                        : 8 bits\nScan type                        : Progressive\nBits/(Pixel*Frame)               : 0.091\nStream size                      : 1.10 GiB (83%)\nWriting library                  : x264\n\nAudio\nID                               : 2\nFormat                           : AC-3\nFormat/Info                      : Audio Coding 3\nMode extension                   : CM (complete main)\nCodec ID                         : A_AC3\nDuration                         : 1h 15mn\nBit rate mode                    : Constant\nBit rate                         : 384 Kbps\nChannel(s)                       : 6 channels\nChannel positions                : Front: L C R, Side: L R, LFE\nSampling rate                    : 48.0 KHz\nBit depth                        : 16 bits\nVideo delay                      : -1mn 5s\nStream size                      : 207 MiB (15%)\nLanguage                         : English\n\n\n    \nPlot:\n A group of teachers must defend themselves from a gang of murderous kids when their school comes under siege after hours\n &lt;a href=&quot;\nhttp://shareimage.org/images/uh37mzdljxhc21510gv6.png&quot; rel=&quot;nofollow&quot; target=&quot;_NEW&quot;&gt;\nhttp://shareimage.org/images/uh37mzdljxhc21510gv6.png&lt;/a&gt; &lt;a href=&quot;\nhttp://shareimage.org/images/vyfh1axl2j7nt9pgnp53.png&quot; rel=&quot;nofollow&quot; target=&quot;_NEW&quot;&gt;\nhttp://shareimage.org/images/vyfh1axl2j7nt9pgnp53.png&lt;/a&gt; &lt;a href=&quot;\nhttp://shareimage.org/images/83fznryuyyjpk1ca4v0z.png&quot; rel=&quot;nofollow&quot; target=&quot;_NEW&quot;&gt;\nhttp://shareimage.org/images/83fznryuyyjpk1ca4v0z.png&lt;/a&gt; &lt;a href=&quot;\nhttp://shareimage.org/images/q9wazjj8iwelc8yznzgr.png&quot; rel=&quot;nofollow&quot; target=&quot;_NEW&quot;&gt;\nhttp://shareimage.org/images/q9wazjj8iwelc8yznzgr.png&lt;/a&gt;","torrent":{"xt":"urn:btih:85615b3480d772dc8aae599ebc3afa7ea2b546e7","amp;dn":"F+2010+720p+x264+BRRip+x264.Feel-Free","amp;tr":["udp%3A%2F%2Ftracker.openbittorrent.com%3A80","udp%3A%2F%2Fopen.demonii.com%3A1337","udp%3A%2F%2Ftracker.coppersurfer.tk%3A6969","udp%3A%2F%2Fexodus.desync.com%3A6969"],"infoHash":"85615b3480d772dc8aae599ebc3afa7ea2b546e7","infoHashBuffer":{"type":"Buffer","data":[133,97,91,52,128,215,114,220,138,174,89,158,188,58,250,126,162,181,70,231]},"announce":[],"urlList":[]}}